<svg id="svg" version="1.1" xmlns="http://www.w3.org/2000/svg" xmlns:xlink="http://www.w3.org/1999/xlink" width="300" height="50" viewBox="0, 0, 400,400"><g id="svgg"><path id="path0" d="M115.480 172.208 C 115.469 172.323,115.479 172.492,115.501 172.583 C 115.599 172.990,115.850 173.939,115.919 174.167 C 115.960 174.304,116.111 174.867,116.253 175.417 C 116.396 175.967,116.553 176.567,116.603 176.750 C 116.652 176.933,116.718 177.233,116.748 177.417 C 116.778 177.600,116.855 177.881,116.919 178.042 C 116.994 178.228,116.959 178.333,116.823 178.333 C 116.707 178.333,116.660 178.382,116.719 178.441 C 116.779 178.501,116.649 178.895,116.431 179.316 C 115.588 180.947,112.167 187.987,112.167 188.090 C 112.167 188.150,112.012 188.416,111.822 188.683 C 111.632 188.949,111.517 189.167,111.566 189.167 C 111.615 189.167,111.211 190.039,110.670 191.105 L 109.685 193.043 110.449 192.938 C 110.869 192.880,112.611 192.833,114.318 192.833 L 117.424 192.833 118.025 191.625 C 118.355 190.960,119.062 189.517,119.595 188.417 C 120.128 187.317,120.606 186.379,120.657 186.333 C 120.708 186.287,120.764 186.170,120.782 186.072 C 120.799 185.974,121.440 184.602,122.205 183.024 L 123.597 180.154 123.859 180.785 C 124.404 182.097,125.222 184.424,125.222 184.663 C 125.222 184.800,125.322 185.013,125.444 185.135 C 125.567 185.257,125.676 185.464,125.688 185.595 C 125.712 185.873,125.739 185.980,125.889 186.375 C 125.950 186.535,126.050 186.798,126.111 186.958 C 126.171 187.119,126.234 187.287,126.250 187.333 C 126.266 187.379,126.320 187.529,126.371 187.667 C 126.422 187.804,126.704 188.576,126.997 189.382 L 127.530 190.847 127.144 191.632 C 126.394 193.157,126.032 193.000,130.305 193.000 L 134.098 193.000 134.619 191.958 C 134.906 191.385,135.644 189.867,136.260 188.583 C 137.630 185.727,139.203 182.533,139.460 182.083 C 139.822 181.451,143.565 173.750,143.551 173.667 C 143.543 173.621,143.669 173.396,143.830 173.167 C 143.991 172.938,144.175 172.581,144.239 172.375 L 144.356 172.000 140.583 172.000 C 136.746 172.000,136.333 172.064,136.333 172.655 C 136.333 172.754,136.073 173.341,135.755 173.959 C 135.437 174.577,134.570 176.358,133.827 177.917 C 133.085 179.475,132.151 181.419,131.753 182.238 L 131.029 183.725 130.820 182.988 C 130.705 182.582,130.592 182.175,130.569 182.083 C 130.546 181.992,130.290 181.167,130.000 180.250 C 129.710 179.333,129.454 178.508,129.431 178.417 C 129.408 178.325,129.289 177.912,129.167 177.500 C 128.898 176.594,128.874 176.508,128.776 176.083 C 128.734 175.900,128.584 175.450,128.442 175.083 C 128.237 174.555,127.902 173.459,127.753 172.833 C 127.743 172.787,127.676 172.581,127.606 172.375 L 127.478 172.000 121.489 172.000 C 116.819 172.000,115.496 172.046,115.480 172.208 M155.024 172.159 L 144.632 172.250 144.608 175.250 L 144.583 178.250 148.141 178.202 C 150.098 178.175,151.671 178.213,151.638 178.285 C 150.393 180.969,149.280 183.225,149.149 183.333 C 149.094 183.379,148.955 183.704,148.840 184.055 C 148.726 184.406,148.198 185.568,147.667 186.638 C 147.137 187.708,146.350 189.333,145.920 190.250 C 145.490 191.167,145.032 192.134,144.902 192.401 C 144.773 192.667,144.667 192.911,144.667 192.942 C 144.667 192.974,146.392 193.000,148.500 193.000 C 151.796 193.000,152.333 192.965,152.333 192.750 C 152.333 192.612,152.396 192.500,152.472 192.500 C 152.549 192.500,152.611 192.397,152.611 192.271 C 152.611 191.991,157.028 183.105,157.206 183.028 C 157.276 182.997,157.333 182.893,157.333 182.796 C 157.333 182.699,157.671 181.916,158.083 181.057 C 158.496 180.197,158.833 179.455,158.833 179.407 C 158.833 179.359,158.997 179.098,159.198 178.827 L 159.563 178.333 166.933 178.333 L 174.303 178.333 173.985 178.992 C 173.810 179.354,173.667 179.729,173.667 179.825 C 173.667 179.921,173.592 180.000,173.500 180.000 C 173.408 180.000,173.333 180.078,173.333 180.174 C 173.333 180.269,173.107 180.831,172.831 181.421 L 172.329 182.496 166.667 182.539 L 161.005 182.583 161.979 184.500 C 162.515 185.554,163.226 186.942,163.559 187.583 C 163.892 188.225,164.165 188.844,164.166 188.958 C 164.166 189.073,164.232 189.167,164.312 189.167 C 164.393 189.167,165.095 190.423,165.873 191.958 C 166.651 193.494,167.716 195.556,168.241 196.542 L 169.196 198.333 173.306 198.333 L 177.417 198.332 178.748 197.014 C 179.480 196.289,180.136 195.731,180.206 195.774 C 180.276 195.818,180.333 195.759,180.333 195.644 C 180.333 195.529,180.840 194.956,181.458 194.370 C 182.573 193.315,188.425 187.575,193.597 182.464 L 196.278 179.816 196.264 184.241 L 196.250 188.667 192.292 188.667 C 190.115 188.667,188.335 188.723,188.337 188.792 C 188.340 188.860,188.421 189.254,188.518 189.667 C 188.615 190.079,188.732 190.642,188.778 190.917 C 188.921 191.773,188.948 191.904,189.077 192.375 L 189.203 192.833 204.073 192.833 L 218.943 192.833 220.346 189.963 C 221.118 188.384,221.775 187.034,221.806 186.963 C 221.836 186.892,219.455 186.833,216.514 186.833 C 213.573 186.833,211.167 186.791,211.167 186.740 C 211.167 186.689,212.001 184.945,213.022 182.865 C 216.331 176.119,218.167 172.330,218.167 172.248 C 218.167 172.203,216.495 172.167,214.451 172.167 L 210.735 172.167 208.967 175.792 C 207.995 177.785,206.461 180.917,205.558 182.750 L 203.917 186.083 203.815 180.000 C 203.758 176.654,203.702 173.485,203.690 172.958 L 203.667 172.000 197.764 172.000 L 191.862 172.000 192.051 172.500 C 192.155 172.775,192.298 173.000,192.370 173.000 C 192.441 173.000,192.500 173.072,192.500 173.159 C 192.500 173.247,192.717 173.686,192.981 174.135 L 193.463 174.952 188.220 180.101 C 185.337 182.933,181.055 187.181,178.705 189.542 C 176.356 191.902,174.392 193.833,174.342 193.833 C 174.240 193.832,172.971 191.360,171.689 188.667 L 170.856 186.917 173.637 186.833 C 177.713 186.711,178.102 186.456,179.913 182.722 C 180.528 181.454,181.333 179.817,181.703 179.083 C 183.143 176.224,182.599 173.770,180.250 172.525 L 179.417 172.083 172.417 172.076 C 168.567 172.072,160.740 172.109,155.024 172.159 M68.500 172.417 C 68.386 172.554,68.332 172.667,68.381 172.667 C 68.430 172.667,67.685 174.260,66.726 176.208 C 65.767 178.156,64.855 180.012,64.700 180.333 C 64.545 180.654,64.281 181.123,64.114 181.375 C 63.947 181.627,63.854 181.833,63.907 181.833 C 63.986 181.833,62.143 185.665,61.470 186.902 C 61.029 187.713,61.200 190.667,61.688 190.667 C 61.768 190.667,61.833 190.742,61.833 190.835 C 61.833 191.105,62.707 192.010,63.250 192.302 C 64.343 192.890,64.700 192.917,70.202 192.833 L 75.654 192.750 78.202 190.210 C 79.603 188.813,80.927 187.482,81.142 187.252 L 81.535 186.833 75.351 186.833 C 71.950 186.833,69.167 186.806,69.167 186.772 C 69.167 186.738,69.574 185.895,70.073 184.897 C 70.571 183.900,71.508 181.977,72.154 180.625 L 73.329 178.167 80.840 178.167 L 88.350 178.167 88.567 177.625 C 88.687 177.327,88.845 176.933,88.919 176.750 C 88.994 176.567,89.067 176.379,89.083 176.333 C 89.099 176.287,89.173 176.100,89.248 175.917 C 89.322 175.733,89.644 174.908,89.963 174.083 C 90.281 173.258,90.617 172.490,90.708 172.375 C 90.981 172.032,68.784 172.074,68.500 172.417 M90.920 174.250 C 90.373 175.396,89.867 176.333,89.796 176.333 C 89.725 176.333,89.667 176.438,89.667 176.565 C 89.667 176.692,89.367 177.404,89.000 178.146 C 88.633 178.889,88.333 179.542,88.333 179.598 C 88.333 179.653,88.178 179.916,87.989 180.183 C 87.799 180.449,87.680 180.667,87.725 180.667 C 87.770 180.667,87.219 181.848,86.502 183.292 C 84.974 186.368,84.759 187.056,84.899 188.409 C 85.122 190.560,86.447 192.050,88.817 192.817 C 89.198 192.940,92.167 193.000,97.923 193.000 L 106.462 193.000 106.756 192.375 C 107.652 190.474,109.175 187.441,109.324 187.261 C 109.660 186.857,109.199 186.833,100.889 186.833 C 96.275 186.833,92.500 186.793,92.500 186.743 C 92.500 186.693,92.726 186.169,93.002 185.578 L 93.505 184.504 99.596 184.460 L 105.688 184.417 105.915 184.000 C 106.039 183.771,106.481 182.871,106.896 182.000 L 107.650 180.417 101.575 180.373 C 98.234 180.349,95.500 180.274,95.501 180.206 C 95.501 180.139,95.749 179.671,96.053 179.167 L 96.604 178.250 103.919 178.167 L 111.233 178.083 112.609 175.333 C 113.365 173.821,113.987 172.490,113.992 172.375 C 113.998 172.210,111.685 172.167,102.957 172.167 L 91.914 172.167 90.920 174.250 " stroke="none" fill="#047cfc" fill-rule="evenodd"></path><path id="path1" d="M237.053 173.132 C 236.761 173.747,235.439 176.463,234.116 179.167 C 232.793 181.871,231.054 185.433,230.252 187.083 C 229.450 188.733,228.537 190.598,228.225 191.228 C 227.315 193.059,227.207 193.000,231.493 193.000 L 235.131 193.000 236.412 190.375 C 237.117 188.931,237.819 187.487,237.972 187.167 C 238.125 186.846,238.306 186.558,238.375 186.528 C 238.444 186.497,238.500 186.402,238.500 186.316 C 238.500 186.231,239.325 184.469,240.333 182.402 C 241.342 180.334,242.167 178.573,242.167 178.488 C 242.167 178.396,244.400 178.333,247.684 178.333 C 252.135 178.333,253.186 178.375,253.119 178.549 C 253.074 178.668,252.147 180.580,251.060 182.798 L 249.083 186.830 244.114 186.832 L 239.144 186.833 239.245 187.208 C 239.300 187.415,239.417 187.846,239.504 188.167 C 239.917 189.680,240.500 192.289,240.500 192.625 L 240.500 193.000 244.125 193.000 C 248.350 193.000,248.641 192.934,251.417 191.348 C 253.314 190.264,255.908 187.839,256.833 186.285 C 256.971 186.054,257.391 185.351,257.766 184.724 C 258.142 184.097,258.626 183.133,258.842 182.583 C 259.058 182.033,259.290 181.507,259.356 181.413 C 259.423 181.319,259.641 180.422,259.840 179.420 C 260.388 176.664,259.914 174.745,258.315 173.249 C 256.912 171.937,257.483 171.999,246.964 172.007 L 237.583 172.014 237.053 173.132 M263.736 174.617 C 263.034 176.065,261.601 179.012,260.551 181.167 C 259.501 183.321,258.369 185.646,258.035 186.333 C 256.941 188.588,257.148 190.341,258.686 191.832 C 259.883 192.995,260.018 193.009,269.500 192.960 L 277.854 192.917 278.091 192.500 C 278.222 192.271,279.160 190.358,280.176 188.250 C 281.745 184.996,282.709 183.045,283.344 181.837 C 286.157 176.492,286.168 174.190,283.389 172.557 L 282.583 172.083 273.797 172.033 L 265.011 171.984 263.736 174.617 M287.808 175.956 C 283.820 184.092,282.454 186.934,282.236 187.545 C 281.592 189.354,282.446 191.360,284.333 192.474 L 285.083 192.917 293.833 192.964 L 302.583 193.011 304.216 189.630 C 305.114 187.771,305.918 186.137,306.004 186.000 C 306.289 185.544,307.000 183.993,307.000 183.828 C 307.000 183.739,307.075 183.667,307.167 183.667 C 307.258 183.667,307.333 183.576,307.333 183.465 C 307.333 183.355,307.850 182.211,308.482 180.924 C 310.275 177.269,310.236 177.373,310.224 176.176 C 310.210 174.893,309.950 174.226,309.120 173.351 C 307.872 172.033,308.321 172.089,298.500 172.039 L 289.750 171.994 287.808 175.956 M312.440 172.785 C 312.496 173.224,312.612 173.921,312.699 174.333 C 312.785 174.746,312.953 175.608,313.072 176.250 C 313.191 176.892,313.344 177.622,313.412 177.873 L 313.535 178.330 321.089 178.373 L 328.643 178.417 328.113 179.500 C 327.822 180.096,327.527 180.608,327.458 180.639 C 327.390 180.669,327.333 180.767,327.333 180.856 C 327.333 180.945,327.181 181.352,326.996 181.759 L 326.658 182.500 319.496 182.500 C 313.240 182.500,312.333 182.532,312.333 182.750 C 312.333 182.887,312.258 183.000,312.167 183.000 C 312.075 183.000,312.000 183.083,312.000 183.185 C 312.000 183.287,311.449 184.506,310.775 185.893 C 310.101 187.281,309.412 188.735,309.243 189.125 C 309.074 189.515,308.875 189.833,308.801 189.833 C 308.727 189.833,308.665 189.927,308.664 190.042 C 308.662 190.156,308.375 190.831,308.024 191.541 C 307.674 192.251,307.425 192.870,307.471 192.916 C 307.518 192.962,309.230 193.000,311.276 193.000 L 314.996 193.000 315.381 192.375 C 315.593 192.031,315.965 191.300,316.207 190.750 C 316.450 190.200,316.972 189.112,317.368 188.333 L 318.087 186.917 319.079 186.917 L 320.070 186.917 321.008 188.750 C 321.524 189.758,322.146 190.958,322.390 191.415 C 322.634 191.873,322.833 192.335,322.833 192.443 C 322.833 192.551,322.890 192.664,322.958 192.694 C 323.027 192.725,323.728 194.025,324.517 195.583 L 325.950 198.417 329.737 198.461 C 334.102 198.513,333.776 198.716,332.668 196.639 C 332.309 195.967,331.442 194.292,330.740 192.917 C 330.038 191.542,329.060 189.629,328.567 188.667 L 327.670 186.917 329.209 186.868 C 330.055 186.842,330.819 186.748,330.907 186.660 C 330.995 186.572,331.190 186.500,331.341 186.500 C 331.604 186.500,331.974 186.240,332.798 185.474 C 333.008 185.279,333.480 184.481,333.847 183.700 C 335.018 181.214,335.410 180.419,335.507 180.333 C 335.560 180.287,335.913 179.538,336.293 178.669 C 337.211 176.568,337.125 174.780,336.055 173.700 C 335.937 173.581,335.745 173.348,335.629 173.182 C 335.512 173.017,335.079 172.702,334.667 172.482 L 333.917 172.083 323.127 172.035 L 312.338 171.986 312.440 172.785 M277.756 177.292 C 277.693 177.544,277.573 177.775,277.488 177.806 C 277.403 177.836,277.333 177.935,277.333 178.025 C 277.333 178.167,275.725 181.526,273.296 186.458 L 272.618 187.833 268.890 187.833 L 265.162 187.833 265.434 187.208 C 265.584 186.865,265.789 186.377,265.890 186.125 C 265.991 185.873,266.132 185.667,266.203 185.667 C 266.275 185.667,266.333 185.580,266.333 185.473 C 266.333 185.367,266.791 184.336,267.351 183.182 C 267.911 182.028,268.751 180.296,269.217 179.333 C 270.583 176.516,269.950 176.833,274.204 176.833 L 277.869 176.833 277.756 177.292 M302.639 176.958 C 302.608 177.027,302.222 177.833,301.780 178.750 C 301.339 179.667,300.851 180.679,300.697 181.000 C 300.543 181.321,300.360 181.608,300.292 181.639 C 300.223 181.669,300.167 181.778,300.167 181.880 C 300.167 181.981,299.604 183.205,298.917 184.599 C 298.229 185.994,297.667 187.184,297.667 187.246 C 297.667 187.307,297.560 187.464,297.429 187.595 C 297.138 187.886,289.833 187.955,289.833 187.667 C 289.833 187.575,289.908 187.500,290.000 187.500 C 290.092 187.500,290.167 187.409,290.167 187.298 C 290.167 187.118,291.397 184.442,291.874 183.583 C 292.596 182.286,295.000 177.237,295.000 177.020 C 295.000 176.888,296.119 176.833,298.847 176.833 C 300.963 176.833,302.669 176.890,302.639 176.958 " stroke="none" fill="#fafafa" fill-rule="evenodd"></path><path id="path2" d="M68.609 172.125 C 68.539 172.238,76.534 172.237,86.917 172.122 C 89.117 172.097,85.915 172.060,79.802 172.039 C 73.688 172.017,68.652 172.056,68.609 172.125 M91.743 172.178 C 91.683 172.276,91.678 172.401,91.733 172.456 C 91.788 172.511,91.833 172.468,91.833 172.361 C 91.833 172.215,94.588 172.167,102.936 172.167 C 113.959 172.167,114.038 172.169,113.952 172.500 C 113.904 172.684,113.932 172.792,114.016 172.740 C 114.099 172.689,114.167 172.501,114.167 172.323 C 114.167 171.944,91.977 171.799,91.743 172.178 M150.970 172.125 C 153.658 172.151,158.008 172.151,160.637 172.125 C 163.266 172.099,161.067 172.078,155.750 172.078 C 150.433 172.078,148.282 172.099,150.970 172.125 M203.728 173.667 C 203.728 174.629,203.756 175.023,203.790 174.542 C 203.823 174.060,203.823 173.273,203.790 172.792 C 203.756 172.310,203.728 172.704,203.728 173.667 M210.555 172.208 C 210.362 172.515,208.656 176.021,208.487 176.458 C 208.118 177.413,208.559 176.633,209.595 174.500 L 210.729 172.167 214.448 172.167 C 216.493 172.167,218.167 172.202,218.167 172.246 C 218.167 172.289,217.898 172.870,217.570 173.537 C 216.877 174.944,216.645 175.500,216.750 175.500 C 216.850 175.500,218.333 172.379,218.333 172.167 C 218.333 171.903,210.722 171.943,210.555 172.208 M115.435 172.917 C 115.572 173.529,115.668 173.663,115.664 173.236 C 115.663 173.060,115.585 172.804,115.492 172.667 C 115.369 172.484,115.353 172.552,115.435 172.917 M144.548 173.250 C 144.549 173.708,144.581 173.876,144.620 173.623 C 144.658 173.369,144.657 172.994,144.617 172.789 C 144.578 172.584,144.546 172.792,144.548 173.250 M90.019 173.852 C 89.916 174.146,89.861 174.417,89.897 174.452 C 89.932 174.488,90.045 174.276,90.148 173.981 C 90.251 173.687,90.306 173.417,90.270 173.381 C 90.234 173.345,90.121 173.557,90.019 173.852 M128.104 174.083 C 128.163 174.358,128.278 174.696,128.358 174.833 C 128.452 174.993,128.466 174.903,128.396 174.583 C 128.337 174.308,128.222 173.971,128.142 173.833 C 128.048 173.673,128.034 173.763,128.104 174.083 M90.552 174.625 C 90.495 174.785,90.417 174.992,90.379 175.083 C 90.340 175.175,90.427 175.104,90.571 174.926 C 90.833 174.603,90.912 174.333,90.745 174.333 C 90.696 174.333,90.609 174.465,90.552 174.625 M115.937 174.750 C 115.996 175.025,116.111 175.362,116.191 175.500 C 116.285 175.660,116.299 175.570,116.230 175.250 C 116.170 174.975,116.056 174.637,115.975 174.500 C 115.881 174.340,115.868 174.430,115.937 174.750 M89.528 175.158 C 89.430 175.438,89.386 175.667,89.429 175.667 C 89.542 175.667,89.856 174.801,89.774 174.718 C 89.736 174.681,89.625 174.878,89.528 175.158 M144.545 175.333 C 144.545 175.746,144.578 175.915,144.618 175.708 C 144.657 175.502,144.657 175.165,144.618 174.958 C 144.578 174.752,144.545 174.921,144.545 175.333 M90.027 175.757 C 89.748 176.370,89.801 176.501,90.103 175.944 C 90.244 175.683,90.328 175.439,90.290 175.401 C 90.252 175.363,90.134 175.523,90.027 175.757 M215.435 177.935 C 214.824 179.188,214.361 180.250,214.407 180.296 C 214.453 180.342,214.561 180.194,214.647 179.968 C 214.733 179.741,215.225 178.708,215.740 177.672 C 216.255 176.635,216.647 175.758,216.611 175.722 C 216.575 175.686,216.046 176.682,215.435 177.935 M111.908 176.683 C 111.671 177.151,111.506 177.561,111.540 177.595 C 111.574 177.629,111.803 177.247,112.049 176.745 C 112.295 176.244,112.461 175.833,112.418 175.833 C 112.374 175.833,112.145 176.216,111.908 176.683 M144.545 176.833 C 144.545 177.246,144.578 177.415,144.618 177.208 C 144.657 177.002,144.657 176.665,144.618 176.458 C 144.578 176.252,144.545 176.421,144.545 176.833 M189.497 178.792 L 187.583 180.750 189.542 178.836 C 191.361 177.058,191.576 176.833,191.456 176.833 C 191.431 176.833,190.550 177.715,189.497 178.792 M207.740 177.953 C 207.480 178.483,207.240 178.973,207.207 179.042 C 207.174 179.110,207.184 179.167,207.229 179.167 C 207.350 179.167,208.361 177.139,208.280 177.058 C 208.243 177.020,207.999 177.423,207.740 177.953 M133.575 178.182 C 133.429 178.466,133.338 178.727,133.375 178.763 C 133.411 178.800,133.565 178.568,133.717 178.248 C 134.060 177.529,133.941 177.474,133.575 178.182 M144.553 177.917 C 144.588 178.259,151.667 178.632,151.667 178.292 C 151.667 178.223,150.097 178.167,148.179 178.167 C 145.001 178.167,144.683 178.141,144.605 177.875 C 144.538 177.648,144.527 177.657,144.553 177.917 M111.235 177.998 C 111.133 178.100,108.328 178.180,103.847 178.207 L 96.624 178.250 96.382 178.667 C 96.141 179.082,96.141 179.082,96.424 178.708 L 96.707 178.333 104.002 178.333 C 110.333 178.333,111.310 178.300,111.394 178.083 C 111.505 177.792,111.464 177.769,111.235 177.998 M80.878 178.125 L 73.340 178.170 73.079 178.710 C 72.847 179.189,72.846 179.214,73.075 178.926 C 73.217 178.749,73.333 178.542,73.333 178.468 C 73.333 178.394,76.746 178.333,80.917 178.333 C 85.861 178.333,88.500 178.275,88.500 178.167 C 88.500 178.075,88.481 178.018,88.458 178.040 C 88.435 178.062,85.024 178.100,80.878 178.125 M203.870 182.292 C 203.850 184.331,203.871 186.000,203.916 186.000 C 203.962 186.000,204.573 184.819,205.275 183.375 C 205.977 181.931,206.581 180.694,206.619 180.625 C 206.656 180.556,206.643 180.500,206.590 180.500 C 206.537 180.500,205.951 181.606,205.289 182.958 L 204.083 185.417 203.995 182.000 L 203.906 178.583 203.870 182.292 M88.173 179.489 C 87.961 179.884,87.952 180.050,88.147 179.929 C 88.294 179.838,88.523 179.167,88.407 179.167 C 88.373 179.167,88.267 179.312,88.173 179.489 M95.754 179.658 C 95.614 179.929,95.500 180.191,95.500 180.242 C 95.500 180.292,98.235 180.333,101.578 180.333 C 107.179 180.333,107.648 180.355,107.550 180.611 C 107.478 180.797,107.507 180.849,107.638 180.768 C 108.511 180.228,107.908 180.167,101.746 180.167 L 95.658 180.167 95.917 179.667 C 96.059 179.392,96.138 179.167,96.092 179.167 C 96.046 179.167,95.894 179.388,95.754 179.658 M206.838 179.738 C 206.590 180.389,206.639 180.492,206.936 179.944 C 207.077 179.683,207.151 179.429,207.101 179.379 C 207.051 179.328,206.932 179.490,206.838 179.738 M195.079 181.042 L 193.917 182.250 195.034 181.179 L 196.152 180.108 196.209 181.429 L 196.266 182.750 196.300 181.292 C 196.318 180.490,196.313 179.833,196.287 179.833 C 196.262 179.833,195.718 180.377,195.079 181.042 M72.098 180.643 C 71.885 180.987,71.681 181.677,71.817 181.593 C 71.900 181.542,72.046 181.275,72.142 181.000 C 72.308 180.523,72.286 180.339,72.098 180.643 M132.279 180.754 C 132.217 180.935,132.121 181.196,132.066 181.333 C 132.011 181.471,132.091 181.413,132.245 181.204 C 132.399 180.995,132.495 180.735,132.458 180.625 C 132.421 180.513,132.342 180.570,132.279 180.754 M212.890 183.125 C 212.191 184.569,211.588 185.806,211.550 185.875 C 211.512 185.944,211.524 186.000,211.577 186.000 C 211.630 186.000,212.245 184.819,212.943 183.375 C 213.642 181.931,214.245 180.694,214.283 180.625 C 214.322 180.556,214.310 180.500,214.257 180.500 C 214.205 180.500,213.590 181.681,212.890 183.125 M107.173 181.322 C 106.961 181.717,106.952 181.883,107.147 181.762 C 107.294 181.672,107.523 181.000,107.407 181.000 C 107.373 181.000,107.267 181.145,107.173 181.322 M131.386 182.625 C 131.329 182.785,131.250 182.992,131.212 183.083 C 131.173 183.175,131.260 183.104,131.404 182.926 C 131.666 182.603,131.745 182.333,131.578 182.333 C 131.529 182.333,131.443 182.465,131.386 182.625 M62.917 183.667 C 62.684 184.125,62.532 184.500,62.578 184.500 C 62.624 184.500,62.851 184.125,63.083 183.667 C 63.316 183.208,63.468 182.833,63.422 182.833 C 63.376 182.833,63.149 183.208,62.917 183.667 M114.386 183.125 C 114.329 183.285,114.250 183.492,114.212 183.583 C 114.173 183.675,114.260 183.604,114.404 183.426 C 114.666 183.103,114.745 182.833,114.578 182.833 C 114.529 182.833,114.443 182.965,114.386 183.125 M138.491 183.941 C 138.399 184.183,138.276 184.457,138.219 184.550 C 138.162 184.642,138.194 184.669,138.291 184.609 C 138.475 184.496,138.875 183.500,138.737 183.500 C 138.694 183.500,138.583 183.698,138.491 183.941 M124.924 184.042 C 124.986 184.248,125.106 184.490,125.190 184.580 C 125.274 184.669,125.258 184.500,125.155 184.205 C 124.944 183.599,124.749 183.461,124.924 184.042 M99.673 184.458 C 96.330 184.484,93.540 184.560,93.473 184.627 C 93.405 184.695,96.159 184.729,99.592 184.704 C 103.510 184.676,105.833 184.598,105.833 184.496 C 105.833 184.407,105.815 184.351,105.792 184.373 C 105.769 184.395,103.015 184.433,99.673 184.458 M125.424 185.375 C 125.486 185.581,125.606 185.823,125.690 185.913 C 125.774 186.002,125.758 185.834,125.655 185.538 C 125.444 184.932,125.249 184.795,125.424 185.375 M147.449 186.758 C 146.837 188.006,146.894 188.154,147.519 186.942 C 147.796 186.405,147.994 185.939,147.960 185.905 C 147.926 185.871,147.696 186.255,147.449 186.758 M84.937 186.256 C 84.880 186.405,84.840 186.652,84.848 186.805 C 84.856 186.958,84.928 186.862,85.009 186.592 C 85.166 186.066,85.110 185.805,84.937 186.256 M211.268 186.430 C 211.212 186.575,211.167 186.725,211.167 186.764 C 211.167 186.802,213.573 186.833,216.514 186.833 C 219.455 186.833,221.836 186.892,221.806 186.963 C 221.775 187.034,221.118 188.384,220.346 189.963 L 218.943 192.833 204.067 192.833 C 190.043 192.833,189.186 192.817,189.105 192.542 C 189.038 192.315,189.027 192.324,189.054 192.583 C 189.088 192.914,189.226 192.917,204.116 192.959 L 219.144 193.002 219.260 192.634 C 219.325 192.431,219.967 191.067,220.689 189.601 C 221.410 188.136,222.000 186.876,222.000 186.802 C 222.000 186.728,219.602 186.667,216.672 186.667 C 212.004 186.667,211.356 186.636,211.440 186.417 C 211.492 186.279,211.498 186.167,211.452 186.167 C 211.406 186.167,211.323 186.285,211.268 186.430 M69.278 186.444 C 68.945 186.777,69.694 186.829,75.417 186.871 C 78.854 186.896,81.667 186.860,81.667 186.792 C 81.667 186.723,78.887 186.667,75.490 186.667 C 71.415 186.667,69.349 186.610,69.417 186.500 C 69.533 186.311,69.446 186.276,69.278 186.444 M92.500 186.705 C 92.500 186.772,96.325 186.847,101.000 186.872 C 105.675 186.897,109.500 186.862,109.500 186.795 C 109.500 186.728,105.675 186.653,101.000 186.628 C 96.325 186.603,92.500 186.638,92.500 186.705 M196.220 187.667 C 196.220 188.262,196.250 188.506,196.287 188.208 C 196.324 187.910,196.324 187.423,196.287 187.125 C 196.250 186.827,196.220 187.071,196.220 187.667 M241.625 186.791 C 243.023 186.819,245.310 186.819,246.708 186.791 C 248.106 186.763,246.963 186.741,244.167 186.741 C 241.371 186.741,240.227 186.763,241.625 186.791 M187.330 188.625 L 185.750 190.250 187.375 188.670 C 188.884 187.202,189.076 187.000,188.955 187.000 C 188.930 187.000,188.199 187.731,187.330 188.625 M84.712 187.833 C 84.712 188.246,84.745 188.415,84.784 188.208 C 84.824 188.002,84.824 187.665,84.784 187.458 C 84.745 187.252,84.712 187.421,84.712 187.833 M180.000 188.083 C 179.595 188.496,179.301 188.833,179.347 188.833 C 179.393 188.833,179.762 188.496,180.167 188.083 C 180.572 187.671,180.865 187.333,180.819 187.333 C 180.774 187.333,180.405 187.671,180.000 188.083 M289.833 187.708 C 289.833 187.777,291.540 187.818,293.625 187.800 C 297.460 187.766,297.019 187.705,292.375 187.626 C 290.977 187.603,289.833 187.640,289.833 187.708 M112.006 187.989 C 111.795 188.384,111.785 188.550,111.980 188.429 C 112.127 188.338,112.356 187.667,112.240 187.667 C 112.206 187.667,112.101 187.812,112.006 187.989 M267.051 187.791 C 268.133 187.820,269.858 187.820,270.884 187.791 C 271.910 187.762,271.025 187.738,268.917 187.738 C 266.808 187.738,265.969 187.762,267.051 187.791 M119.673 188.156 C 119.461 188.550,119.452 188.716,119.647 188.596 C 119.794 188.505,120.023 187.833,119.907 187.833 C 119.873 187.833,119.767 187.978,119.673 188.156 M79.742 188.708 L 79.083 189.417 79.792 188.758 C 80.450 188.145,80.577 188.000,80.450 188.000 C 80.423 188.000,80.105 188.319,79.742 188.708 M108.324 189.107 C 108.232 189.350,108.110 189.624,108.053 189.716 C 107.995 189.809,108.028 189.836,108.125 189.776 C 108.308 189.663,108.708 188.667,108.571 188.667 C 108.527 188.667,108.416 188.865,108.324 189.107 M176.757 191.327 C 174.946 193.141,174.386 193.613,174.213 193.470 C 174.042 193.327,174.016 193.347,174.097 193.560 C 174.262 193.988,174.284 193.970,176.833 191.417 C 178.160 190.088,179.208 189.000,179.162 189.000 C 179.116 189.000,178.034 190.047,176.757 191.327 M118.929 189.692 C 118.785 189.981,118.667 190.261,118.667 190.313 C 118.667 190.457,119.097 189.789,119.217 189.458 C 119.390 188.981,119.211 189.127,118.929 189.692 M77.252 191.164 L 75.594 192.829 70.172 192.875 L 64.750 192.921 70.170 192.961 L 75.589 193.000 77.333 191.250 C 78.293 190.287,79.040 189.500,78.994 189.500 C 78.948 189.500,78.164 190.249,77.252 191.164 M145.513 190.716 C 145.423 190.953,145.153 191.533,144.913 192.006 C 144.674 192.480,144.550 192.822,144.640 192.767 C 144.855 192.634,145.862 190.473,145.758 190.369 C 145.713 190.324,145.603 190.480,145.513 190.716 M86.250 191.500 C 86.608 191.867,86.938 192.167,86.984 192.167 C 87.030 192.167,86.775 191.867,86.417 191.500 C 86.059 191.133,85.728 190.833,85.682 190.833 C 85.637 190.833,85.892 191.133,86.250 191.500 M165.449 191.415 C 165.602 191.734,165.756 191.966,165.792 191.930 C 165.868 191.854,165.362 190.833,165.248 190.833 C 165.206 190.833,165.297 191.095,165.449 191.415 M184.324 191.625 L 183.750 192.250 184.375 191.676 C 184.957 191.141,185.077 191.000,184.949 191.000 C 184.922 191.000,184.640 191.281,184.324 191.625 M61.833 191.219 C 61.833 191.248,62.072 191.491,62.364 191.760 L 62.895 192.250 62.489 191.718 C 62.144 191.265,61.833 191.029,61.833 191.219 M117.718 192.247 L 117.441 192.827 114.012 192.875 L 110.583 192.924 114.038 192.962 L 117.493 193.000 117.833 192.333 C 118.020 191.967,118.133 191.667,118.084 191.667 C 118.035 191.667,117.870 191.928,117.718 192.247 M166.116 192.748 C 166.268 193.068,166.423 193.300,166.459 193.263 C 166.535 193.187,166.029 192.167,165.915 192.167 C 165.873 192.167,165.963 192.428,166.116 192.748 M183.073 192.875 L 182.583 193.417 183.125 192.927 C 183.630 192.471,183.743 192.333,183.615 192.333 C 183.586 192.333,183.342 192.577,183.073 192.875 M167.667 195.719 C 167.667 195.747,167.986 196.366,168.376 197.094 L 169.085 198.417 173.314 198.461 L 177.543 198.506 178.628 197.415 C 179.225 196.815,179.680 196.291,179.639 196.250 C 179.598 196.209,179.084 196.661,178.495 197.255 L 177.426 198.333 173.298 198.333 L 169.170 198.333 168.500 197.000 C 167.934 195.875,167.667 195.463,167.667 195.719 " stroke="none" fill="#0467d6" fill-rule="evenodd"></path><path id="path3" d="M117.395 203.903 C 116.934 204.117,116.364 204.484,116.129 204.719 C 115.894 204.954,115.638 205.095,115.559 205.032 C 115.481 204.968,115.466 204.978,115.526 205.053 C 115.586 205.129,115.304 205.827,114.901 206.605 C 113.966 208.407,113.942 208.304,115.716 210.202 C 115.948 210.450,116.240 210.798,116.363 210.974 C 116.640 211.370,118.447 213.422,119.625 214.680 C 120.106 215.193,120.500 215.659,120.500 215.714 C 120.500 215.769,120.837 216.156,121.250 216.574 C 121.662 216.993,122.000 217.379,122.000 217.433 C 122.000 217.486,122.169 217.671,122.375 217.843 C 122.743 218.150,122.622 218.156,115.865 218.161 C 111.722 218.164,109.018 218.228,109.075 218.320 C 109.127 218.404,109.057 218.586,108.918 218.725 C 108.780 218.863,108.667 219.050,108.667 219.141 C 108.667 219.232,108.142 220.406,107.500 221.750 C 106.858 223.094,106.333 224.225,106.333 224.264 C 106.333 224.560,127.653 224.310,128.282 224.006 C 129.217 223.554,130.353 222.395,130.587 221.654 C 130.657 221.432,130.971 220.708,131.285 220.045 C 131.780 219.002,131.827 218.797,131.637 218.526 C 131.430 218.232,129.755 216.326,128.833 215.337 C 128.604 215.091,128.079 214.498,127.667 214.018 C 126.502 212.664,126.034 212.144,125.238 211.318 C 124.832 210.897,124.500 210.496,124.500 210.428 C 124.500 210.359,124.331 210.163,124.125 209.991 C 123.757 209.683,123.866 209.678,130.083 209.670 L 136.417 209.663 136.904 208.373 C 137.173 207.664,137.556 206.708,137.755 206.250 C 138.103 205.451,138.310 204.918,138.337 204.752 C 138.343 204.710,138.454 204.472,138.583 204.224 C 138.965 203.488,139.033 203.493,128.438 203.504 L 118.234 203.515 117.395 203.903 M139.919 205.108 C 139.483 206.011,139.080 206.787,139.022 206.833 C 138.964 206.879,138.903 206.994,138.887 207.088 C 138.817 207.500,136.790 211.500,136.653 211.500 C 136.569 211.500,136.500 211.610,136.500 211.745 C 136.500 211.880,135.844 213.324,135.042 214.954 C 132.990 219.123,132.990 220.765,135.041 222.880 C 136.467 224.348,136.253 224.321,146.509 224.330 C 154.395 224.338,155.500 224.308,155.500 224.089 C 155.500 223.951,156.058 222.710,156.740 221.331 C 157.423 219.952,158.028 218.676,158.085 218.495 C 158.188 218.171,158.067 218.166,149.636 218.154 C 144.932 218.146,141.177 218.103,141.292 218.056 C 141.406 218.010,141.500 217.834,141.500 217.665 C 141.500 217.496,141.615 217.242,141.756 217.101 C 141.897 216.960,142.010 216.786,142.008 216.714 C 141.986 215.981,141.822 216.000,148.303 216.000 L 154.417 216.000 155.375 214.014 C 155.902 212.922,156.333 211.947,156.333 211.848 C 156.333 211.721,154.541 211.667,150.333 211.667 C 144.606 211.667,144.037 211.620,144.556 211.189 C 144.679 211.087,144.870 210.703,144.980 210.335 L 145.180 209.667 158.173 209.667 C 166.442 209.667,171.167 209.725,171.167 209.828 C 171.167 209.917,170.876 210.573,170.521 211.286 C 170.166 212.000,169.735 212.883,169.563 213.250 L 169.250 213.917 163.625 213.873 C 159.998 213.844,158.000 213.887,158.000 213.994 C 158.000 214.084,158.150 214.404,158.333 214.704 C 158.516 215.004,158.666 215.381,158.666 215.542 C 158.666 215.702,158.730 215.833,158.807 215.833 C 158.924 215.833,159.360 216.559,159.407 216.833 C 159.415 216.879,159.473 216.996,159.535 217.094 C 159.597 217.192,160.335 218.617,161.175 220.261 C 162.014 221.905,162.777 223.344,162.871 223.458 C 162.964 223.573,162.985 223.667,162.917 223.667 C 162.848 223.667,162.871 223.761,162.966 223.876 C 163.061 223.990,163.546 224.872,164.044 225.834 C 164.542 226.796,165.089 227.846,165.259 228.167 C 165.430 228.487,165.578 228.787,165.588 228.833 C 165.820 229.856,166.520 230.000,171.262 230.000 C 173.887 230.000,173.841 230.048,172.890 228.284 C 172.498 227.556,172.127 226.801,172.066 226.605 C 172.005 226.410,171.909 226.213,171.853 226.167 C 171.753 226.086,170.770 224.195,168.800 220.297 L 167.849 218.417 170.633 218.333 C 174.174 218.227,175.253 217.734,176.089 215.841 C 176.232 215.516,176.408 215.137,176.480 215.000 C 180.122 208.004,180.365 206.272,177.960 204.439 C 176.890 203.622,177.412 203.646,158.564 203.553 L 140.711 203.466 139.919 205.108 M181.861 212.458 C 181.890 217.385,181.939 222.073,181.969 222.875 L 182.024 224.333 185.804 224.332 L 189.583 224.330 199.958 214.026 C 205.665 208.359,210.333 203.672,210.333 203.611 C 210.333 203.469,203.719 203.465,203.012 203.606 C 202.611 203.686,201.666 204.526,199.116 207.064 C 197.265 208.908,194.381 211.762,192.708 213.406 L 189.667 216.396 189.662 214.406 C 189.655 211.243,189.483 203.937,189.410 203.708 C 189.360 203.550,188.444 203.500,185.576 203.500 L 181.809 203.500 181.861 212.458 M210.685 203.958 C 210.586 204.210,210.431 204.529,210.342 204.667 C 210.071 205.081,207.377 210.722,207.256 211.125 C 207.195 211.331,207.080 211.500,207.002 211.500 C 206.924 211.500,206.810 211.725,206.750 212.000 C 206.690 212.275,206.571 212.500,206.487 212.500 C 206.402 212.500,206.333 212.595,206.333 212.712 C 206.333 212.829,205.660 214.272,204.837 215.920 C 204.013 217.568,203.338 219.010,203.337 219.125 C 203.335 219.240,203.258 219.333,203.167 219.333 C 203.075 219.333,203.000 219.434,203.000 219.557 C 203.000 219.679,202.631 220.504,202.180 221.390 C 201.729 222.275,201.391 223.000,201.428 223.000 C 201.465 223.000,201.346 223.244,201.165 223.542 C 200.983 223.840,200.834 224.140,200.834 224.208 C 200.834 224.277,202.577 224.332,204.708 224.331 L 208.583 224.329 209.726 221.956 C 210.354 220.651,211.530 218.233,212.339 216.583 C 213.148 214.933,214.570 212.008,215.499 210.083 C 216.428 208.158,217.314 206.322,217.469 206.003 C 217.623 205.683,217.838 205.328,217.945 205.213 C 218.052 205.098,218.189 204.779,218.249 204.504 C 218.310 204.229,218.428 203.961,218.513 203.909 C 219.047 203.579,218.324 203.500,214.766 203.500 L 210.866 203.500 210.685 203.958 M220.207 204.458 C 219.955 204.985,219.693 205.442,219.624 205.473 C 219.555 205.503,219.540 205.597,219.592 205.681 C 219.644 205.765,219.613 205.833,219.523 205.833 C 219.433 205.833,219.310 206.058,219.250 206.333 C 219.190 206.608,219.071 206.833,218.987 206.833 C 218.902 206.833,218.833 206.924,218.833 207.035 C 218.833 207.146,218.113 208.702,217.232 210.493 C 215.755 213.498,213.702 217.726,213.281 218.631 C 212.720 219.838,213.265 222.072,214.390 223.172 C 215.625 224.378,215.815 224.411,221.954 224.469 L 227.491 224.520 230.577 221.385 L 233.663 218.250 227.498 218.167 L 221.334 218.083 221.654 217.417 C 221.831 217.050,222.654 215.352,223.485 213.642 C 224.315 211.933,225.069 210.339,225.160 210.101 L 225.325 209.667 232.845 209.667 C 240.224 209.667,240.366 209.660,240.452 209.333 C 240.500 209.150,240.605 209.000,240.686 209.000 C 240.767 209.000,240.833 208.882,240.833 208.737 C 240.833 208.519,241.528 206.565,241.925 205.667 C 241.945 205.621,242.016 205.415,242.084 205.208 C 242.151 205.002,242.256 204.833,242.317 204.833 C 242.378 204.833,242.434 204.702,242.440 204.542 C 242.447 204.381,242.503 204.131,242.567 203.986 C 242.685 203.713,234.691 203.501,224.290 203.500 L 220.663 203.500 220.207 204.458 M270.250 203.806 C 269.883 203.953,269.484 204.150,269.363 204.244 C 268.590 204.848,267.667 205.933,267.667 206.237 C 267.667 206.368,267.573 206.575,267.458 206.696 C 267.344 206.818,267.127 207.261,266.976 207.682 L 266.702 208.447 267.476 209.282 C 268.975 210.900,269.646 211.667,269.564 211.667 C 269.519 211.667,269.665 211.835,269.890 212.042 C 270.114 212.248,270.699 212.873,271.191 213.431 C 272.391 214.794,274.145 216.773,274.708 217.399 C 274.960 217.679,275.167 217.966,275.167 218.037 C 275.167 218.108,272.175 218.167,268.519 218.167 L 261.871 218.167 261.585 218.792 C 260.953 220.169,260.078 221.921,259.983 222.000 C 259.927 222.046,259.785 222.383,259.667 222.750 C 259.549 223.117,259.351 223.565,259.226 223.745 C 259.102 223.926,259.000 224.132,259.000 224.204 C 259.000 224.275,263.793 224.333,269.651 224.333 L 280.303 224.333 281.159 223.889 C 281.969 223.469,283.000 222.421,283.000 222.018 C 283.000 221.916,283.088 221.833,283.194 221.833 C 283.301 221.833,283.347 221.791,283.295 221.740 C 283.244 221.688,283.494 221.048,283.851 220.318 C 284.650 218.683,284.655 218.816,283.750 217.872 C 283.337 217.441,283.000 217.045,283.000 216.990 C 283.000 216.936,282.606 216.485,282.125 215.987 C 281.644 215.490,280.800 214.563,280.250 213.928 C 279.700 213.292,279.100 212.606,278.917 212.402 C 277.807 211.168,276.899 210.103,276.783 209.900 C 276.670 209.702,277.586 209.667,282.905 209.667 L 289.160 209.667 289.265 209.250 C 289.322 209.021,289.436 208.833,289.518 208.833 C 289.600 208.833,289.667 208.726,289.667 208.594 C 289.667 208.463,289.753 208.144,289.859 207.886 C 289.965 207.628,290.063 207.342,290.077 207.250 C 290.090 207.158,290.191 206.872,290.301 206.614 C 290.410 206.356,290.500 206.105,290.500 206.056 C 290.500 206.007,290.608 205.731,290.740 205.442 C 291.254 204.315,291.467 203.690,291.371 203.593 C 291.111 203.333,270.927 203.536,270.250 203.806 M243.218 205.042 C 242.844 205.798,241.890 207.729,241.098 209.333 C 240.305 210.938,239.585 212.362,239.498 212.500 C 239.411 212.637,239.180 213.088,238.986 213.500 C 238.792 213.912,238.247 215.037,237.775 216.000 C 236.430 218.743,236.528 221.114,238.051 222.667 C 239.739 224.387,239.363 224.334,249.748 224.332 L 258.583 224.330 259.239 222.957 C 259.600 222.201,259.962 221.537,260.045 221.481 C 260.128 221.425,260.181 221.328,260.164 221.266 C 260.114 221.085,260.529 220.126,260.874 219.625 C 261.047 219.373,261.143 219.167,261.085 219.167 C 261.028 219.167,261.098 219.000,261.241 218.796 C 261.383 218.593,261.500 218.368,261.500 218.296 C 261.500 218.225,257.669 218.167,252.986 218.167 C 248.303 218.167,244.497 218.110,244.528 218.042 C 244.559 217.973,244.802 217.485,245.069 216.958 L 245.554 216.000 251.652 215.994 L 257.750 215.989 258.417 214.556 C 258.783 213.768,259.215 212.855,259.375 212.526 C 259.535 212.198,259.667 211.870,259.667 211.798 C 259.667 211.726,256.960 211.667,253.653 211.667 C 250.345 211.667,247.664 211.609,247.694 211.539 C 247.725 211.469,247.932 211.019,248.155 210.539 L 248.559 209.667 255.905 209.663 L 263.250 209.660 263.826 208.455 C 264.143 207.792,264.477 207.149,264.569 207.025 C 264.660 206.901,264.752 206.684,264.773 206.542 C 264.794 206.400,264.880 206.238,264.964 206.183 C 265.049 206.128,265.247 205.690,265.405 205.210 C 265.563 204.730,265.761 204.294,265.846 204.242 C 266.730 203.696,266.180 203.667,254.949 203.667 L 243.898 203.667 243.218 205.042 " stroke="none" fill="#fb0404" fill-rule="evenodd"></path><path id="path4" d="M165.542 203.625 C 167.077 203.652,169.590 203.652,171.125 203.625 C 172.660 203.597,171.404 203.575,168.333 203.575 C 165.262 203.575,164.006 203.597,165.542 203.625 M234.500 203.618 C 238.888 203.736,242.834 203.739,242.834 203.625 C 242.833 203.556,240.565 203.516,237.792 203.535 C 235.019 203.555,233.537 203.592,234.500 203.618 M243.743 203.678 C 243.683 203.776,243.678 203.901,243.733 203.956 C 243.788 204.011,243.833 203.968,243.833 203.861 C 243.833 203.576,265.944 203.581,266.039 203.867 C 266.081 203.992,266.146 203.960,266.214 203.783 C 266.346 203.439,243.956 203.334,243.743 203.678 M116.643 204.177 L 116.250 204.520 116.750 204.227 C 117.408 203.842,117.418 203.833,117.213 203.833 C 117.116 203.833,116.860 203.988,116.643 204.177 M291.195 204.325 C 291.097 204.605,291.053 204.833,291.096 204.833 C 291.209 204.833,291.523 203.968,291.441 203.885 C 291.403 203.847,291.292 204.045,291.195 204.325 M139.886 204.792 C 139.829 204.952,139.750 205.158,139.712 205.250 C 139.673 205.342,139.760 205.271,139.904 205.093 C 140.166 204.770,140.245 204.500,140.078 204.500 C 140.029 204.500,139.943 204.631,139.886 204.792 M290.658 205.606 C 290.566 205.848,290.522 206.077,290.559 206.115 C 290.597 206.153,290.708 205.955,290.805 205.675 C 291.022 205.053,290.891 204.993,290.658 205.606 M139.360 205.924 C 139.081 206.537,139.134 206.667,139.436 206.110 C 139.577 205.850,139.662 205.606,139.623 205.568 C 139.585 205.530,139.467 205.690,139.360 205.924 M198.080 208.042 L 196.250 209.917 198.125 208.086 C 199.867 206.386,200.076 206.167,199.955 206.167 C 199.931 206.167,199.087 207.010,198.080 208.042 M137.267 207.443 C 137.118 207.880,137.062 208.165,137.142 208.077 C 137.327 207.874,137.690 206.801,137.603 206.714 C 137.567 206.678,137.416 207.006,137.267 207.443 M114.011 208.170 C 114.000 208.428,115.524 210.365,115.643 210.246 C 115.679 210.210,115.390 209.822,115.002 209.382 C 114.613 208.943,114.234 208.433,114.158 208.250 C 114.066 208.025,114.018 207.999,114.011 208.170 M136.685 208.852 C 136.583 209.146,136.528 209.417,136.563 209.452 C 136.599 209.488,136.712 209.276,136.815 208.981 C 136.917 208.687,136.972 208.417,136.937 208.381 C 136.901 208.345,136.788 208.557,136.685 208.852 M271.000 213.385 C 271.000 213.414,271.244 213.658,271.542 213.927 L 272.083 214.417 271.594 213.875 C 271.138 213.370,271.000 213.257,271.000 213.385 M260.557 220.042 C 260.505 220.127,260.550 220.283,260.658 220.390 C 260.807 220.537,260.824 220.508,260.732 220.264 C 260.650 220.051,260.671 219.983,260.793 220.059 C 260.894 220.121,261.016 220.108,261.064 220.030 C 261.113 219.953,261.040 219.889,260.902 219.889 C 260.765 219.889,260.609 219.958,260.557 220.042 M181.881 220.750 C 181.882 221.208,181.915 221.376,181.953 221.123 C 181.991 220.869,181.990 220.494,181.951 220.289 C 181.911 220.084,181.880 220.292,181.881 220.750 M166.458 229.954 C 166.756 229.991,167.244 229.991,167.542 229.954 C 167.840 229.917,167.596 229.887,167.000 229.887 C 166.404 229.887,166.160 229.917,166.458 229.954 " stroke="none" fill="#a90404" fill-rule="evenodd"></path></g></svg>