<?xml version="1.0" standalone="no"?>
<!DOCTYPE svg PUBLIC "-//W3C//DTD SVG 20010904//EN"
 "http://www.w3.org/TR/2001/REC-SVG-20010904/DTD/svg10.dtd">
<svg version="1.0" xmlns="http://www.w3.org/2000/svg"
 width="35.93" height="32" viewBox="0 0 1536.000000 1536.000000"
 preserveAspectRatio="xMidYMid meet">

<g transform="translate(0.000000,1536.000000) scale(0.100000,-0.100000)"
fill="#000000" stroke="none">
<path d="M0 7680 l0 -7680 7680 0 7680 0 0 7680 0 7680 -7680 0 -7680 0 0
-7680z m1376 3059 c159 -22 326 -96 353 -156 14 -30 14 -88 0 -232 -9 -90 -16
-121 -31 -138 -20 -21 -150 -63 -197 -63 -26 0 -66 41 -76 77 -12 50 -73 131
-117 156 -64 37 -92 40 -142 18 -104 -45 -166 -200 -166 -412 0 -222 57 -351
184 -417 45 -23 63 -26 146 -26 98 0 134 11 212 65 51 36 71 27 147 -68 90
-112 91 -123 10 -196 -67 -62 -173 -118 -264 -142 -78 -20 -252 -20 -329 0
-165 43 -311 166 -390 327 -54 110 -72 175 -87 317 -9 87 -8 127 4 223 54 404
290 650 649 677 9 0 52 -4 94 -10z m10149 -11 c230 -50 424 -303 465 -605 17
-120 8 -294 -19 -398 -53 -200 -173 -372 -321 -459 -100 -58 -137 -69 -260
-74 -100 -3 -124 -1 -180 18 -89 30 -145 65 -211 131 -190 190 -266 544 -185
862 59 229 176 392 346 481 116 61 226 74 365 44z m1296 8 c221 -40 395 -216
475 -483 23 -75 27 -112 31 -248 5 -148 3 -168 -21 -265 -64 -257 -224 -452
-431 -525 -57 -20 -89 -25 -175 -25 -158 0 -263 44 -370 152 -123 125 -188
283 -211 514 -10 95 -9 131 5 227 51 354 247 604 511 652 90 17 96 17 186 1z
m-9504 -28 c11 -13 75 -131 143 -263 172 -336 197 -377 223 -373 31 4 36 44
36 329 1 241 1 246 24 266 23 22 197 63 268 63 73 0 69 40 69 -743 0 -457 -4
-705 -10 -717 -18 -33 -264 -90 -306 -71 -18 8 -67 96 -192 348 -93 185 -176
341 -185 347 -38 24 -42 -2 -48 -317 -3 -166 -6 -303 -7 -304 -17 -19 -70 -37
-168 -57 -137 -28 -161 -24 -181 34 -16 46 -18 1342 -3 1387 14 38 34 48 140
72 120 27 171 27 197 -1z m5019 8 c18 -14 19 -35 24 -578 3 -310 9 -571 14
-581 12 -25 27 -26 257 -29 270 -4 274 -7 229 -171 -45 -169 -15 -159 -460
-155 l-348 3 -26 24 -26 25 2 699 3 700 25 18 c27 20 180 56 246 58 22 1 49
-5 60 -13z m-5588 -16 c28 -27 28 -51 -3 -163 -39 -138 -37 -137 -247 -137
-217 0 -208 6 -208 -140 0 -151 -9 -144 192 -148 182 -3 200 -5 222 -28 22
-22 20 -56 -9 -159 -38 -133 -42 -135 -218 -135 -189 0 -187 1 -187 -127 0
-140 -13 -133 240 -133 121 0 220 -4 238 -11 51 -17 56 -49 27 -159 -28 -104
-49 -141 -86 -151 -40 -11 -680 -10 -721 1 -72 20 -68 -22 -68 738 0 724 1
734 47 761 12 7 144 10 389 11 359 0 371 -1 392 -20z m2623 -1 c20 -20 21 -28
15 -116 -13 -175 -23 -183 -218 -183 -73 0 -140 -5 -148 -10 -13 -8 -16 -85
-20 -562 -3 -304 -8 -558 -13 -565 -10 -15 -52 -29 -171 -53 -124 -25 -122
-25 -151 6 l-25 27 0 559 c0 366 -4 566 -10 579 -10 18 -23 19 -184 19 -163 0
-175 1 -201 22 -27 21 -28 22 -21 107 3 47 11 103 16 123 20 71 -5 68 582 68
525 0 528 0 549 -21z m911 3 c104 -38 181 -120 216 -232 12 -38 17 -89 17
-165 0 -137 -26 -226 -97 -330 -32 -47 -48 -80 -48 -102 0 -19 29 -91 71 -180
40 -81 96 -199 125 -262 59 -127 59 -142 -1 -166 -63 -27 -253 -75 -269 -69
-17 7 -66 103 -196 389 -79 174 -104 208 -153 203 -52 -5 -57 -26 -57 -278 0
-124 -4 -230 -8 -236 -14 -22 -69 -42 -171 -63 -129 -26 -127 -26 -156 4 l-25
24 0 721 c0 707 0 720 20 740 19 19 33 20 353 19 284 0 339 -3 379 -17z m1330
-2 c37 -29 44 -54 78 -300 17 -124 35 -252 40 -285 5 -33 18 -125 29 -205 26
-180 46 -325 66 -458 19 -133 19 -147 -5 -170 -28 -26 -256 -95 -287 -87 -35
8 -47 47 -73 225 -29 210 -25 204 -174 208 -68 1 -124 -2 -136 -8 -24 -13 -34
-51 -55 -204 -9 -66 -21 -128 -26 -138 -15 -29 -56 -44 -176 -68 -127 -24
-159 -18 -177 32 -10 27 -7 51 114 908 21 151 43 313 49 360 17 133 30 169 65
191 29 17 55 19 337 19 289 0 308 -1 331 -20z m2603 5 c213 -55 357 -209 422
-453 23 -87 26 -116 27 -282 1 -172 -1 -192 -27 -284 -75 -272 -231 -430 -464
-471 -100 -18 -492 -19 -543 -2 -19 7 -40 23 -47 37 -10 20 -12 175 -10 726 2
674 3 703 21 723 19 20 27 21 290 21 211 0 285 -3 331 -15z m4067 -12 c146
-67 216 -212 205 -424 -6 -126 -27 -190 -97 -296 -27 -42 -50 -89 -50 -103 0
-14 25 -77 56 -140 141 -288 194 -404 194 -421 0 -25 -38 -43 -181 -84 -109
-32 -124 -34 -144 -21 -13 9 -67 113 -145 281 -68 147 -130 274 -138 281 -20
21 -61 28 -88 15 l-24 -11 0 -229 c0 -126 -4 -241 -10 -255 -13 -35 -49 -51
-176 -75 -133 -26 -157 -21 -174 36 -8 27 -10 248 -8 734 3 674 4 698 22 718
20 22 23 22 365 19 330 -3 348 -4 393 -25z m-9376 -1658 c92 -26 201 -112 242
-192 11 -20 6 -24 -66 -67 l-77 -45 -37 43 c-67 78 -168 109 -262 82 -30 -9
-57 -20 -60 -24 -3 -5 112 -104 254 -221 143 -117 260 -219 260 -226 0 -7 -17
-35 -39 -62 -141 -179 -379 -224 -573 -110 -42 24 -148 128 -148 144 0 4 34
29 76 54 l77 46 43 -43 c70 -70 198 -94 280 -51 l26 14 -248 203 c-137 111
-255 208 -262 215 -19 18 4 60 71 128 114 117 278 158 443 112z m838 15 c88
-14 178 -61 242 -125 30 -30 53 -59 50 -64 -3 -5 -37 -30 -76 -57 l-70 -48
-38 37 c-50 49 -139 81 -202 72 -53 -7 -140 -53 -166 -88 l-18 -23 -72 50
c-40 28 -73 56 -73 62 -2 21 114 121 171 147 48 23 121 42 178 46 8 0 41 -3
74 -9z m3159 -26 c32 -12 79 -39 105 -58 45 -33 92 -86 92 -103 0 -4 -32 -30
-71 -56 l-70 -49 -39 36 c-56 50 -104 69 -180 69 -106 1 -195 -62 -235 -166
-28 -73 -17 -174 25 -235 96 -141 270 -162 391 -46 l35 34 72 -50 c40 -28 72
-56 72 -62 0 -19 -91 -101 -145 -132 -128 -71 -283 -73 -416 -6 -136 70 -239
245 -239 407 0 117 70 271 157 342 128 105 299 134 446 75z m833 10 c64 -17
163 -83 203 -133 l30 -37 -77 -55 -77 -55 -28 32 c-88 102 -276 102 -364 0
l-28 -32 -72 50 c-40 28 -73 56 -73 64 0 24 99 110 163 141 103 51 204 59 323
25z m820 0 c28 -7 78 -32 112 -54 59 -39 151 -144 138 -157 -3 -4 -39 -26 -79
-50 l-72 -43 -39 46 c-61 72 -153 103 -244 84 -103 -23 -109 -14 178 -248 143
-117 260 -219 260 -226 0 -20 -53 -88 -101 -129 -46 -40 -120 -78 -184 -96
-99 -27 -245 -2 -337 59 -45 30 -138 122 -138 137 0 5 34 29 76 54 l77 46 43
-43 c70 -70 198 -94 280 -51 l26 14 -248 203 c-137 112 -255 209 -263 216 -13
12 -9 21 24 70 68 98 181 168 300 184 68 9 117 5 191 -16z m-3877 -14 c83 -14
129 -39 180 -96 50 -57 65 -107 59 -200 -6 -85 -38 -150 -93 -184 l-34 -21 29
-52 c32 -58 45 -107 55 -214 l7 -73 -100 0 c-113 0 -112 0 -112 79 0 146 -74
236 -212 256 l-48 7 0 -171 0 -171 -105 0 -105 0 0 170 0 170 -25 0 c-25 0
-25 1 -25 80 0 79 0 80 25 80 26 0 26 0 23 78 l-3 77 -37 3 -38 3 0 95 0 94
248 0 c136 0 276 -5 311 -10z m522 -28 c8 -20 60 -148 114 -284 55 -136 102
-244 106 -240 3 4 20 43 37 87 17 44 66 168 110 275 l80 195 106 3 c58 1 106
-1 106 -5 0 -4 -75 -196 -167 -425 l-168 -418 -106 0 c-103 0 -106 1 -117 25
-6 13 -52 125 -101 247 -49 123 -119 297 -156 388 -37 91 -69 171 -72 178 -4
9 21 12 103 12 l109 0 16 -38z m959 -136 c0 -165 1 -174 20 -179 18 -5 20 -14
20 -85 0 -71 -2 -80 -20 -85 -19 -5 -20 -14 -20 -166 l0 -161 -100 0 -100 0 0
165 c0 140 -2 165 -15 165 -12 0 -15 16 -15 85 0 69 3 85 15 85 13 0 15 26 15
175 l0 175 100 0 100 0 0 -174z m-4030 -144 c68 -33 71 -51 68 -368 -3 -265
-4 -283 -23 -304 -11 -12 -28 -26 -38 -32 -12 -6 -647 -9 -1774 -8 -1934 1
-1789 -4 -1812 62 -7 19 -11 137 -11 309 l0 278 30 35 c17 19 41 37 53 39 12
2 798 5 1747 6 1624 1 1727 0 1760 -17z m10524 -11 c43 -41 48 -76 44 -367 -3
-255 -4 -273 -23 -294 -11 -12 -27 -26 -37 -31 -10 -5 -741 -9 -1772 -9 -1942
-1 -1792 -6 -1815 62 -7 19 -11 137 -11 309 l0 278 30 35 c17 19 41 37 53 39
12 2 806 4 1764 3 l1741 -1 26 -24z m-8766 -98 l3 -83 -226 0 c-150 0 -225 -3
-225 -10 0 -21 29 -65 62 -96 55 -53 95 -68 173 -68 78 0 138 24 187 76 l27
29 73 -52 c40 -28 75 -54 78 -56 9 -8 -119 -122 -160 -143 -223 -114 -494 -21
-602 206 -43 92 -59 231 -32 276 3 4 148 7 322 6 l317 -3 3 -82z m3922 2 l0
-85 -220 0 c-253 0 -253 0 -179 -84 60 -68 108 -90 194 -90 78 0 127 19 181
73 l31 30 76 -53 77 -53 -41 -47 c-75 -85 -211 -146 -326 -146 -59 0 -149 22
-206 51 -60 31 -158 134 -190 201 -40 84 -58 200 -41 266 l6 22 319 0 319 0 0
-85z m-2269 -656 c11 -5 29 -25 39 -42 19 -30 20 -52 20 -311 0 -262 -1 -281
-20 -311 -11 -18 -33 -38 -48 -44 -20 -8 -494 -11 -1779 -9 l-1753 3 -27 28
-28 27 -3 288 c-2 259 -1 290 15 321 37 72 -113 66 1821 64 1212 -2 1749 -6
1763 -14z m3719 -24 l35 -35 2 -283 c3 -317 -1 -337 -64 -363 -46 -20 -3495
-21 -3532 -1 -13 6 -33 24 -44 38 -18 25 -19 43 -18 315 1 261 3 291 19 314
43 59 -81 55 1822 53 l1744 -3 36 -35z m-6984 -1046 c3 -6 -11 -35 -31 -65
-54 -78 -52 -88 18 -92 31 -2 57 -7 57 -11 0 -18 -40 -42 -76 -47 -22 -3 -49
-7 -60 -10 -45 -8 -312 -464 -338 -576 -8 -35 -29 -36 -63 -2 -42 42 -41 44
216 461 35 56 60 106 57 112 -4 6 -25 11 -47 11 -59 0 -48 27 26 67 35 18 83
56 115 91 30 33 62 62 70 65 25 9 48 8 56 -4z m1924 -4 c0 -9 -16 -39 -35 -68
-51 -76 -48 -87 25 -87 56 0 60 -1 51 -19 -12 -22 -61 -41 -104 -41 -42 0 -76
-41 -185 -223 -93 -156 -164 -297 -178 -350 -9 -38 -30 -44 -59 -17 -49 46
-43 61 143 360 64 102 116 194 116 205 1 16 -6 21 -41 23 -24 2 -43 5 -43 7 0
21 22 40 66 60 36 16 77 48 123 94 50 52 76 71 95 71 17 0 26 -5 26 -15z
m-2845 -109 c18 -13 15 -22 -62 -187 -108 -232 -183 -412 -197 -472 -6 -23
-10 -27 -29 -21 -27 8 -67 43 -67 59 0 6 20 52 45 101 25 48 45 94 45 101 0
23 -40 34 -112 31 l-72 -3 -42 -60 c-23 -33 -59 -92 -79 -131 -38 -73 -51 -84
-107 -84 -54 0 -45 18 75 173 l77 97 -40 0 c-28 0 -40 4 -40 14 0 26 50 56 92
56 37 0 46 7 181 143 102 103 157 151 196 170 60 30 107 34 136 13z m4097 3
c62 -13 102 -39 123 -79 56 -108 -60 -380 -208 -488 -94 -69 -205 -99 -303
-81 -44 8 -58 7 -76 -5 -26 -19 -98 -22 -98 -4 0 11 118 224 193 347 62 103
127 237 127 264 0 42 26 53 132 56 31 0 81 -4 110 -10z m2451 4 c27 7 42 6 50
-2 25 -25 -103 -211 -145 -211 -17 0 -19 4 -12 28 4 15 8 45 8 67 1 32 -4 42
-25 53 -33 20 -94 8 -125 -23 -40 -40 -33 -83 26 -154 76 -92 93 -130 88 -201
-3 -48 -10 -67 -35 -97 -57 -72 -130 -105 -228 -105 -223 1 -245 3 -245 20 0
25 80 165 123 217 26 31 46 45 62 45 30 0 30 -1 6 -48 -27 -55 -33 -99 -17
-137 12 -27 22 -35 51 -41 80 -15 167 39 180 110 10 52 -15 111 -80 186 -66
77 -82 117 -66 171 25 84 154 136 295 118 28 -3 67 -1 89 4z m-3622 -163 c10
-6 19 -19 19 -29 0 -39 -72 -71 -105 -47 -17 12 -18 18 -7 40 17 38 59 54 93
36z m5223 -3 c21 -16 15 -52 -12 -66 -62 -31 -112 -13 -90 33 18 41 69 57 102
33z m-7951 -103 c-1 -5 -27 -51 -58 -103 -33 -54 -60 -111 -62 -133 -5 -34 -3
-38 17 -38 37 0 81 34 140 107 91 112 114 133 149 133 17 0 31 -4 31 -8 0 -5
-29 -56 -64 -115 -35 -58 -74 -131 -87 -161 -12 -31 -28 -56 -35 -56 -21 0
-36 29 -32 60 3 16 0 30 -4 30 -5 0 -30 -18 -56 -39 -72 -61 -134 -77 -167
-45 -24 25 -10 82 53 211 38 79 93 150 126 163 25 11 52 7 49 -6z m7657 4 c0
-19 -38 -78 -50 -78 -5 0 -21 -25 -36 -56 -51 -109 -221 -260 -305 -271 -31
-5 -40 -2 -46 12 -19 51 55 287 104 333 30 27 68 31 58 5 -49 -128 -67 -216
-49 -240 12 -17 14 -17 41 3 38 28 96 106 112 149 10 30 10 37 -3 51 -9 9 -15
19 -13 22 28 62 28 62 86 62 31 0 63 5 71 10 20 13 30 12 30 -2z m-6779 -34
c16 -14 20 -27 15 -53 -5 -32 -4 -33 24 -27 22 4 30 2 30 -9 0 -20 -22 -65
-31 -65 -5 0 -31 -31 -59 -68 -72 -100 -139 -142 -226 -142 -37 0 -51 6 -76
30 -29 29 -30 34 -26 95 3 55 10 73 44 122 40 59 111 115 168 133 45 13 113 5
137 -16z m373 18 c3 -5 -8 -28 -25 -53 -26 -39 -37 -69 -25 -69 2 0 28 16 57
35 53 35 101 50 136 43 20 -4 23 -34 8 -78 l-8 -25 34 28 c88 72 140 100 182
101 40 1 42 0 45 -31 3 -35 -12 -69 -96 -213 -89 -153 -81 -143 -99 -129 -25
22 -11 90 36 168 38 64 52 111 34 111 -32 0 -110 -71 -186 -168 -44 -56 -53
-63 -81 -60 -39 4 -38 16 14 105 50 85 52 108 9 99 -46 -9 -100 -56 -179 -157
-65 -81 -73 -89 -105 -89 -19 0 -35 4 -35 9 0 15 106 214 153 288 25 39 54 76
64 82 22 13 60 14 67 3z m1859 2 c3 -4 -13 -30 -37 -58 -24 -28 -51 -66 -60
-84 -24 -47 -50 -40 -54 16 -3 47 -9 49 -58 26 -41 -19 -80 -81 -90 -140 -11
-70 37 -100 115 -73 42 15 50 5 20 -27 -54 -59 -160 -74 -206 -28 -22 22 -25
32 -21 77 6 69 41 138 100 193 55 51 102 74 151 74 19 0 40 7 47 15 12 15 81
21 93 9z m1269 -11 c27 -16 29 -22 25 -57 -5 -37 -5 -38 24 -34 25 4 29 1 29
-20 0 -15 -13 -37 -33 -56 -19 -17 -43 -48 -56 -68 -47 -79 -142 -138 -221
-138 -137 0 -148 169 -19 299 80 81 186 112 251 74z m490 1 c28 -14 30 -19 25
-56 -5 -38 -5 -39 24 -36 16 1 29 -1 29 -5 0 -4 0 -14 0 -22 0 -8 -18 -34 -40
-56 -22 -23 -40 -45 -40 -50 0 -22 -89 -104 -135 -125 -123 -58 -217 -5 -202
111 23 162 219 301 339 239z m575 2 c3 -3 -13 -33 -34 -68 -22 -35 -52 -86
-67 -115 -18 -36 -31 -51 -41 -47 -19 8 -28 39 -21 70 5 20 3 24 -18 24 -33 0
-112 -78 -171 -169 -42 -65 -49 -71 -80 -71 -19 0 -35 5 -35 10 0 15 62 135
120 234 53 90 89 126 125 126 34 0 37 -10 14 -47 -12 -19 -19 -37 -16 -40 4
-3 43 19 88 49 75 50 117 64 136 44z m1219 -11 c47 -72 -60 -211 -178 -230
-24 -4 -49 -12 -55 -17 -22 -18 -15 -67 12 -92 30 -28 31 -32 5 -46 -32 -17
-87 5 -106 43 -23 44 -14 132 21 195 58 108 147 169 247 171 30 1 41 -4 54
-24z m513 9 c2 -2 -16 -34 -41 -71 -25 -38 -55 -87 -67 -111 -29 -58 -56 -55
-56 6 0 37 -3 42 -23 42 -31 0 -101 -67 -158 -153 -26 -39 -53 -75 -58 -79
-20 -14 -66 -9 -66 7 0 36 160 312 198 343 20 15 72 16 72 1 0 -7 -9 -27 -21
-45 -11 -19 -16 -34 -10 -34 14 0 118 66 126 81 15 24 84 33 104 13z m1151 5
c0 -6 -19 -32 -41 -57 -23 -26 -48 -62 -57 -79 -26 -54 -71 -36 -56 22 8 31
-9 38 -50 21 -73 -31 -124 -167 -77 -210 20 -18 53 -19 109 -1 36 12 27 -20
-14 -51 -50 -39 -137 -46 -176 -15 -39 31 -44 74 -18 144 44 116 149 207 241
207 24 0 39 5 43 15 6 18 96 22 96 4z m342 -6 c22 -20 24 -73 4 -112 -32 -61
-100 -107 -193 -131 -42 -11 -45 -14 -45 -45 0 -42 4 -53 27 -63 52 -24 8 -61
-49 -42 -54 17 -69 42 -69 109 0 106 79 227 183 279 53 26 116 29 142 5z
m-6551 -19 c23 -20 22 -60 -1 -57 -8 1 -34 8 -57 14 -58 18 -115 -2 -174 -61
-63 -63 -90 -150 -46 -150 23 0 78 47 119 102 22 29 45 56 52 60 15 10 64 10
70 0 2 -4 -18 -46 -45 -92 -27 -47 -54 -102 -60 -122 -5 -21 -15 -38 -22 -38
-20 0 -37 22 -37 47 0 13 -3 23 -7 23 -3 0 -29 -17 -57 -39 -58 -44 -87 -55
-122 -47 -21 6 -24 12 -24 55 0 90 100 239 193 288 87 45 179 53 218 17z m561
0 c3 -3 -22 -51 -56 -107 -34 -56 -82 -138 -106 -182 -24 -44 -45 -82 -47 -84
-7 -9 -43 33 -43 49 0 10 27 73 60 141 33 68 60 134 60 147 0 14 8 26 23 32
25 10 101 13 109 4z m5218 -3 c0 -5 -26 -51 -58 -102 -33 -52 -78 -130 -102
-174 -52 -98 -55 -101 -75 -85 -26 21 -17 67 34 168 27 53 55 117 62 141 8 26
21 46 33 51 28 12 106 12 106 1z"/>
<path d="M11270 10359 c-93 -54 -142 -217 -120 -404 19 -168 56 -262 135 -341
84 -85 188 -93 260 -21 97 97 113 388 34 590 -64 162 -200 239 -309 176z"/>
<path d="M12605 10361 c-48 -29 -74 -63 -98 -127 -19 -51 -22 -78 -22 -209 0
-116 4 -163 19 -210 51 -169 144 -266 256 -268 128 -2 200 121 200 341 0 225
-76 414 -191 472 -49 26 -124 26 -164 1z"/>
<path d="M5914 10379 c-16 -18 -19 -37 -19 -125 0 -131 6 -139 104 -138 103 2
151 44 151 134 0 99 -53 150 -156 150 -49 0 -65 -4 -80 -21z"/>
<path d="M7232 10388 c-6 -7 -22 -96 -36 -197 -33 -231 -33 -231 79 -231 77 0
105 13 105 48 -1 55 -51 366 -60 378 -15 17 -74 19 -88 2z"/>
<path d="M9956 10378 c-14 -19 -16 -76 -16 -415 0 -380 1 -394 20 -413 27 -27
107 -27 158 -1 65 33 103 90 138 206 27 86 27 373 1 460 -39 128 -108 185
-224 185 -53 0 -64 -3 -77 -22z"/>
<path d="M13886 10379 c-12 -18 -16 -47 -16 -124 0 -55 4 -105 8 -112 27 -43
153 -39 203 5 58 52 58 158 0 216 -28 28 -38 31 -105 34 -68 4 -75 2 -90 -19z"/>
<path d="M6412 8763 l3 -78 61 -6 c33 -3 83 -14 112 -24 61 -22 94 -15 125 27
31 42 27 86 -12 119 -41 33 -68 39 -193 39 l-99 0 3 -77z"/>
<path d="M770 8360 l0 -130 1595 0 1595 0 0 130 0 130 -1595 0 -1595 0 0 -130z"/>
<path d="M11270 8360 l0 -130 1595 0 1595 0 0 130 0 130 -1595 0 -1595 0 0
-130z"/>
<path d="M4180 7595 l0 -135 1593 2 1592 3 2 118 c1 65 -1 125 -4 132 -4 13
-215 15 -1594 15 l-1589 0 0 -135z"/>
<path d="M7874 7716 c-3 -8 -4 -67 -2 -133 l3 -118 1593 -3 1593 -2 -3 132 -3
133 -1588 2 c-1346 2 -1589 1 -1593 -11z"/>
<path d="M3110 6596 c-30 -24 -77 -69 -103 -100 l-48 -56 58 0 c85 1 120 27
163 122 41 90 15 102 -70 34z"/>
<path d="M7328 6681 c-50 -59 -231 -373 -261 -454 -10 -27 26 -57 71 -57 54 1
110 30 165 87 58 59 78 88 119 168 97 188 91 295 -16 295 -39 0 -48 -5 -78
-39z"/>
<path d="M4295 6438 c-80 -44 -147 -188 -116 -247 24 -44 103 -15 137 50 18
36 10 53 -22 45 -13 -4 -24 -2 -24 3 0 29 24 63 54 77 21 10 36 26 39 40 7 40
-26 56 -68 32z"/>
<path d="M7794 6431 c-67 -41 -132 -189 -105 -239 24 -45 95 -23 134 40 27 44
23 62 -14 54 -28 -5 -30 -4 -23 17 8 27 41 65 65 72 35 11 28 75 -9 75 -9 0
-31 -9 -48 -19z"/>
<path d="M8280 6428 c-37 -25 -96 -124 -105 -177 -11 -66 47 -105 99 -66 27
20 56 66 56 88 0 16 -5 17 -31 12 -29 -7 -31 -6 -24 16 9 30 42 67 66 74 39
13 30 75 -11 75 -9 0 -32 -10 -50 -22z"/>
<path d="M10055 6409 c-56 -49 -85 -119 -50 -119 31 0 96 41 116 73 43 70 -2
102 -66 46z"/>
<path d="M12077 6420 c-53 -42 -88 -130 -52 -130 56 0 143 94 128 138 -7 19
-47 14 -76 -8z"/>
</g>
</svg>
